<?xml version="1.0" standalone="no"?>
<!DOCTYPE svg PUBLIC "-//W3C//DTD SVG 20010904//EN"
 "http://www.w3.org/TR/2001/REC-SVG-20010904/DTD/svg10.dtd">
<svg version="1.0" xmlns="http://www.w3.org/2000/svg"
 width="200.000000pt" height="200.000000pt" viewBox="0 0 200.000000 200.000000"
 preserveAspectRatio="xMidYMid meet">
<metadata>
Created by potrace 1.14, written by Peter Selinger 2001-2017
</metadata>
<g transform="translate(0.000000,200.000000) scale(0.100000,-0.100000)"
fill="#000000" stroke="none">
<path d="M910 1910 l0 -89 -92 -3 -93 -3 -3 -177 -2 -177 -88 -3 -87 -3 -3
-182 -2 -183 -85 0 -85 0 -2 183 -3 182 -92 3 -93 3 0 179 0 180 -90 0 -90 0
0 -550 0 -550 90 0 90 0 0 -360 0 -360 820 0 820 0 0 360 0 360 90 0 90 0 0
550 0 550 -90 0 -90 0 0 -180 0 -179 -92 -3 -93 -3 -3 -182 -2 -183 -85 0 -85
0 -2 183 -3 182 -87 3 -88 3 -2 177 -3 177 -92 3 -93 3 0 89 0 90 -90 0 -90 0
0 -90z"/>
</g>
</svg>
